{"title":"Dark.Matter.S01E12.HDTV.480p.x264.AAC-VYTO [P2PDL]","uid":12307912,"size":155784092,"categoryP":"video","categoryS":"tv_shows","magnet":"?xt=urn:btih:d48c8621a65e37edfe1a54c8e9f626f89a380db1&amp;dn=Dark.Matter.S01E12.HDTV.480p.x264.AAC-VYTO+%5BP2PDL%5D&amp;tr=udp%3A%2F%2Ftracker.openbittorrent.com%3A80&amp;tr=udp%3A%2F%2Fopen.demonii.com%3A1337&amp;tr=udp%3A%2F%2Ftracker.coppersurfer.tk%3A6969&amp;tr=udp%3A%2F%2Fexodus.desync.com%3A6969","seeders":8,"leechers":2,"uploader":"ValidusVyto","files":6,"time":1440831124,"description":"____    ____ ____    ____ .___________.  ______   \n     /   /      /   / |           | /  __    \n    /   /      /   /  `---|  |----`|  |  |  | \n        /     _    _/       |  |     |  |  |  | \n       /        |  |         |  |     |  `--'  | \n    __/         |__|         |__|      ______/  \n                                                  \nPresenting Small Encodes with quality for years!\n                                                                                                   \n                                                                                                   \n\nDark.Matter.S01E12.HDTV.480p.x264.AAC-VYTO\n\n\nGeneral\nFormat                         : MPEG-4\nFile size                      : 142 MiB\nDuration                       : 43mn 4s\nOverall bit rate               : 462 Kbps\n\nVideo\nFormat                         : AVC\nBit rate                       : 427 Kbps\nWidth                          : 720 pixels\nHeight                         : 400 pixels\nDisplay aspect ratio           : 16:9\nFrame rate mode                : Constant\nFrame rate                     : 23.976 fps\nBit depth                      : 8 bits\nStream size                    : 132 MiB (92%)\nWriting library                : x264 core 148 r2597\n\nAudio\nFormat                         : AAC\nBit rate mode                  : Variable\nBit rate                       : 32.0 Kbps\nChannel(s)                     : 2 channels \nChannel positions              : Front: L R \nSampling rate                  : 48.0 KHz \nStream size                    : 9.86 MiB (7%)\n\n\nScreenshots:\n &lt;a href=&quot;\nhttp://ititli.com/Yz&quot; rel=&quot;nofollow&quot; target=&quot;_NEW&quot;&gt;\nhttp://ititli.com/Yz&lt;/a&gt; &lt;a href=&quot;\nhttp://ititli.com/YI&quot; rel=&quot;nofollow&quot; target=&quot;_NEW&quot;&gt;\nhttp://ititli.com/YI&lt;/a&gt; &lt;a href=&quot;\nhttp://ititli.com/YO&quot; rel=&quot;nofollow&quot; target=&quot;_NEW&quot;&gt;\nhttp://ititli.com/YO&lt;/a&gt; &lt;a href=&quot;\nhttp://ititli.com/49&quot; rel=&quot;nofollow&quot; target=&quot;_NEW&quot;&gt;\nhttp://ititli.com/49&lt;/a&gt; &lt;a href=&quot;\nhttp://ititli.com/4X&quot; rel=&quot;nofollow&quot; target=&quot;_NEW&quot;&gt;\nhttp://ititli.com/4X&lt;/a&gt; &lt;a href=&quot;\nhttp://ititli.com/4q&quot; rel=&quot;nofollow&quot; target=&quot;_NEW&quot;&gt;\nhttp://ititli.com/4q&lt;/a&gt; &lt;a href=&quot;\nhttp://ititli.com/4r&quot; rel=&quot;nofollow&quot; target=&quot;_NEW&quot;&gt;\nhttp://ititli.com/4r&lt;/a&gt; &lt;a href=&quot;\nhttp://ititli.com/41&quot; rel=&quot;nofollow&quot; target=&quot;_NEW&quot;&gt;\nhttp://ititli.com/41&lt;/a&gt; &lt;a href=&quot;\nhttp://ititli.com/4T&quot; rel=&quot;nofollow&quot; target=&quot;_NEW&quot;&gt;\nhttp://ititli.com/4T&lt;/a&gt; &lt;a href=&quot;\nhttp://ititli.com/4W&quot; rel=&quot;nofollow&quot; target=&quot;_NEW&quot;&gt;\nhttp://ititli.com/4W&lt;/a&gt; &lt;a href=&quot;\nhttp://ititli.com/4g&quot; rel=&quot;nofollow&quot; target=&quot;_NEW&quot;&gt;\nhttp://ititli.com/4g&lt;/a&gt; &lt;a href=&quot;\nhttp://ititli.com/4n&quot; rel=&quot;nofollow&quot; target=&quot;_NEW&quot;&gt;\nhttp://ititli.com/4n&lt;/a&gt;\n\n----------------------------------------------------------------------------------------------------\n\n\nEncoder Notes: Looking For Early Access To Anything You Can Provide DVDScr, R5, DVDR, BluRay, Direct\nAudio, Music Releases and Seedboxes. If You Got anything to offer please contact us.\n\nSupport us by donating BC - 1FgwdzPsd1y25Gea8wP1qni35uGCtmkRCD","torrent":{"xt":"urn:btih:d48c8621a65e37edfe1a54c8e9f626f89a380db1","amp;dn":"Dark.Matter.S01E12.HDTV.480p.x264.AAC-VYTO+%5BP2PDL%5D","amp;tr":["udp%3A%2F%2Ftracker.openbittorrent.com%3A80","udp%3A%2F%2Fopen.demonii.com%3A1337","udp%3A%2F%2Ftracker.coppersurfer.tk%3A6969","udp%3A%2F%2Fexodus.desync.com%3A6969"],"infoHash":"d48c8621a65e37edfe1a54c8e9f626f89a380db1","infoHashBuffer":{"type":"Buffer","data":[212,140,134,33,166,94,55,237,254,26,84,200,233,246,38,248,154,56,13,177]},"announce":[],"urlList":[]}}